<svg width="54" height="42" viewBox="0 0 54 42" fill="none" xmlns="http://www.w3.org/2000/svg">
<g clip-path="url(#clip0_2001_2477)">
<path d="M5.3796 35.991C4.85896 36.2798 4.45869 36.6626 4.17968 37.1374C3.89976 37.6131 3.76025 38.1565 3.76025 38.7676C3.76025 39.7127 4.06662 40.4871 4.68116 41.0919C5.29389 41.6967 6.08259 41.9991 7.04635 41.9991C7.56881 41.9991 8.03383 41.9142 8.44048 41.7427C8.84806 41.5721 9.28025 41.2652 9.73797 40.8229L8.93832 39.997C8.59822 40.331 8.2873 40.5612 8.00374 40.6884C7.72017 40.8148 7.40742 40.878 7.0655 40.878C6.66431 40.878 6.2996 40.7877 5.97135 40.6063C5.64311 40.4258 5.38963 40.1766 5.21 39.8589C5.03038 39.5411 4.94011 39.1783 4.94011 38.7694C4.94011 38.1826 5.14253 37.6889 5.54828 37.2872C5.95311 36.8864 6.45187 36.686 7.04453 36.686C7.7457 36.686 8.37666 36.9794 8.93832 37.5661L9.76258 36.788C9.41975 36.3936 9.01218 36.0903 8.53896 35.8763C8.06574 35.6624 7.57337 35.5559 7.06277 35.5559C6.46189 35.5559 5.90114 35.7003 5.38051 35.9901" fill="white"/>
<path d="M12.1763 40.5774C11.9365 40.3247 11.8171 40.0015 11.8171 39.6097C11.8171 39.218 11.9347 38.9012 12.169 38.6529C12.4043 38.4038 12.6997 38.2801 13.0553 38.2801C13.4109 38.2801 13.72 38.4029 13.958 38.6475C14.196 38.8921 14.3145 39.2117 14.3145 39.6061C14.3145 40.0006 14.196 40.3355 13.958 40.5837C13.72 40.8329 13.4209 40.9565 13.0599 40.9565C12.6988 40.9565 12.4152 40.8301 12.1763 40.5774ZM11.2983 37.9001C10.8807 38.3478 10.6719 38.9219 10.6719 39.6224C10.6719 40.3229 10.888 40.8626 11.3192 41.3176C11.7514 41.7725 12.263 41.9991 12.8556 41.9991C13.1191 41.9991 13.3635 41.9522 13.5896 41.8592C13.8148 41.7662 14.04 41.6137 14.2643 41.4024V41.8818H15.4141V37.345H14.2643V37.8459C14.0592 37.6401 13.8367 37.4858 13.5951 37.3829C13.3535 37.28 13.0954 37.2285 12.821 37.2285C12.2237 37.2285 11.7159 37.4524 11.2983 37.9001Z" fill="white"/>
<path d="M18.0072 37.521C17.9844 37.5363 17.8777 37.6076 17.7683 37.7367C17.6799 37.8414 17.6206 37.9461 17.5823 38.0337V37.4623H16.5967V41.9991H17.7382V40.164L17.7337 39.9428C17.7337 39.3092 17.7948 38.884 17.917 38.6674C17.9671 38.578 18.1148 38.3569 18.3656 38.3424C18.5999 38.3289 18.764 38.5076 18.7914 38.5383C19.023 38.3198 19.2546 38.1023 19.4871 37.8848C19.436 37.7963 19.3193 37.623 19.0995 37.4948C19.0339 37.456 18.847 37.3486 18.588 37.3459C18.5461 37.3459 18.4367 37.3468 18.3026 37.3847C18.2561 37.3982 18.1385 37.4343 18.0072 37.521Z" fill="white"/>
<path d="M48.7606 37.521C48.7378 37.5363 48.6312 37.6076 48.5217 37.7367C48.4333 37.8414 48.374 37.9461 48.3357 38.0337V37.4623H47.3501V41.9991H48.4917V40.164L48.4871 39.9428C48.4871 39.3092 48.5482 38.884 48.6704 38.6674C48.7205 38.578 48.8682 38.3569 49.119 38.3424C49.3533 38.3289 49.5174 38.5076 49.5448 38.5383C49.7764 38.3198 50.008 38.1023 50.2405 37.8848C50.1894 37.7963 50.0727 37.623 49.853 37.4948C49.7873 37.456 49.6004 37.3486 49.3424 37.3459C49.2995 37.3459 49.1901 37.3468 49.0561 37.3847C49.0105 37.3982 48.8919 37.4343 48.7606 37.521Z" fill="white"/>
<path d="M21.8299 36.9911H22.2302C22.9633 36.9911 23.4949 37.1527 23.8267 37.475C24.1951 37.8342 24.3784 38.3388 24.3784 38.9905C24.3784 39.4139 24.3009 39.7695 24.1468 40.0593C23.9927 40.3481 23.793 40.5548 23.5505 40.6776C23.307 40.8004 22.9159 40.8617 22.377 40.8617H21.829V36.992L21.8299 36.9911ZM20.6592 35.8655V42H22.0779C22.8803 42 23.4438 41.9504 23.7693 41.8502C24.0948 41.75 24.3966 41.5694 24.6765 41.3077C24.9555 41.0459 25.1744 40.7173 25.333 40.321C25.4917 39.9248 25.571 39.4906 25.571 39.0176C25.571 38.3532 25.4297 37.7728 25.1461 37.2746C24.8625 36.7772 24.5024 36.417 24.0647 36.1968C23.6271 35.9756 22.9578 35.8655 22.0579 35.8655H20.661H20.6592Z" fill="white"/>
<path d="M27.9776 40.5738C27.7423 40.3292 27.6256 40.0096 27.6256 39.6152C27.6256 39.2207 27.7441 38.9165 27.9821 38.6701C28.2201 38.4246 28.5173 38.3009 28.8748 38.3009C29.2322 38.3009 29.5404 38.4227 29.7756 38.6665C30.0109 38.9093 30.1276 39.2261 30.1276 39.6152C30.1276 40.0042 30.0081 40.3229 29.7692 40.5702C29.5303 40.8175 29.2304 40.9412 28.8702 40.9412C28.5101 40.9412 28.2128 40.8193 27.9776 40.5747M27.2673 37.8478C26.7421 38.3207 26.4795 38.9111 26.4795 39.6197C26.4795 40.2813 26.712 40.8437 27.1761 41.3068C27.6411 41.7698 28.2019 42.0009 28.8584 42.0009C29.3051 42.0009 29.7136 41.8962 30.0847 41.6859C30.4549 41.4756 30.7485 41.1849 30.9628 40.8121C31.178 40.4402 31.2846 40.0394 31.2846 39.6116C31.2846 39.1837 31.178 38.7901 30.9646 38.4237C30.7512 38.0563 30.454 37.7665 30.0738 37.5517C29.6936 37.3377 29.2869 37.2303 28.8538 37.2303C28.2557 37.2303 27.7268 37.4361 27.2664 37.8478" fill="white"/>
<path d="M33.4563 37.5463C33.0587 37.7575 32.7496 38.0481 32.5271 38.4182C32.3047 38.7883 32.1943 39.1927 32.1943 39.6314C32.1943 40.2651 32.4223 40.8184 32.8791 41.2914C33.3359 41.7644 33.9669 42 34.7729 42C35.6683 42 36.3621 41.6832 36.8536 41.0513L35.9473 40.4366C35.6601 40.7841 35.2598 40.9583 34.7455 40.9583C34.3298 40.9583 33.9933 40.8365 33.738 40.5918C33.4818 40.3481 33.3541 40.0322 33.3541 39.6468C33.3541 39.2613 33.4873 38.9246 33.7526 38.671C34.0179 38.4173 34.3662 38.2901 34.7966 38.2901C35.0327 38.2901 35.2388 38.3262 35.4148 38.3984C35.5908 38.4706 35.7686 38.5997 35.9482 38.7856L36.9056 38.2648C36.6749 37.9335 36.3795 37.679 36.0166 37.4993C35.6546 37.3197 35.2461 37.2303 34.7911 37.2303C34.2997 37.2303 33.8556 37.3359 33.4581 37.5472" fill="white"/>
<path d="M43.106 40.5738C42.8707 40.3292 42.754 40.0096 42.754 39.6152C42.754 39.2207 42.8726 38.9165 43.1105 38.6701C43.3476 38.4246 43.6458 38.3009 44.0032 38.3009C44.3606 38.3009 44.6688 38.4227 44.904 38.6665C45.1393 38.9093 45.256 39.2261 45.256 39.6152C45.256 40.0042 45.1365 40.3229 44.8977 40.5702C44.6579 40.8175 44.3588 40.9412 43.9986 40.9412C43.6385 40.9412 43.3412 40.8193 43.106 40.5747M42.3957 37.8478C41.8705 38.3207 41.6079 38.9111 41.6079 39.6197C41.6079 40.2813 41.8404 40.8437 42.3045 41.3068C42.7695 41.7698 43.3303 42.0009 43.9868 42.0009C44.4336 42.0009 44.842 41.8962 45.2131 41.6859C45.5833 41.4756 45.8769 41.1849 46.0912 40.8121C46.3064 40.4402 46.4131 40.0394 46.4131 39.6116C46.4131 39.1837 46.3064 38.7901 46.093 38.4237C45.8797 38.0563 45.5824 37.7665 45.2022 37.5517C44.822 37.3377 44.4153 37.2303 43.9831 37.2303C43.385 37.2303 42.8552 37.4361 42.3957 37.8478Z" fill="white"/>
<path d="M40.8347 37.4623H39.829V35.7906H38.6792V37.4623H37.7656V38.4426H38.6792V42H39.829V38.4426H40.8347V37.4623Z" fill="white"/>
<path d="M36.0954 12.2753H36.0744L36.0516 12.2464C35.7981 11.9224 35.5228 11.6064 35.2301 11.3059C34.7924 10.8563 34.3201 10.4456 33.8223 10.0773C33.8114 10.0692 33.7995 10.0629 33.7895 10.0548C33.4503 9.7623 32.1154 9.03836 32.0726 9.01941C30.4851 8.2386 28.7801 7.83963 27.0003 7.83963C25.5295 7.83963 23.9275 8.20701 22.5443 8.76124L22.5234 8.76937C22.3738 8.82985 22.0821 8.96254 22.0821 8.96525L21.4019 9.26764L21.8678 10.535L22.248 10.359C22.248 10.359 22.248 10.3617 22.248 10.3626C22.3164 10.3283 22.3875 10.2949 22.4577 10.2615L22.5863 10.2019C23.9266 9.59079 25.5523 9.17647 26.9993 9.17647C28.7062 9.17647 30.393 9.61155 31.8811 10.433C31.9011 10.4438 31.9221 10.4537 31.9413 10.4655C32.0416 10.5214 32.14 10.5783 32.2376 10.637C32.2376 10.637 32.2376 10.6361 32.2376 10.6352C32.7801 10.9628 33.2597 11.3456 33.4849 11.5342C33.7594 11.7644 34.0247 12.0081 34.2764 12.2681C33.9472 12.6905 33.1229 13.3233 32.6525 13.669C31.4179 14.5374 31.0258 14.5103 31.0258 14.5103L30.0301 14.9508L29.7949 16.507L30.8654 16.0909C30.9994 16.0421 31.1325 15.9916 31.2647 15.9374C31.262 15.941 31.2592 15.9446 31.2565 15.9482C32.7591 15.3498 34.1332 14.4327 35.2575 13.2682C35.5374 12.9794 35.8045 12.6725 36.0507 12.3566L36.0954 12.3006L36.0845 12.287L36.0954 12.2726V12.2753Z" fill="white"/>
<path d="M25.8167 12.3069C25.8167 11.6606 26.3483 11.1343 27.0012 11.1343C27.654 11.1343 28.1847 11.6606 28.1847 12.3069C28.1847 12.9532 27.654 13.4795 27.0012 13.4795C26.3483 13.4795 25.8167 12.9532 25.8167 12.3069ZM24.5566 12.3069C24.5566 13.6401 25.6535 14.726 27.0012 14.726C28.3488 14.726 29.4429 13.641 29.4429 12.3069C29.4429 10.9728 28.3479 9.88777 27.0012 9.88777C25.6544 9.88777 24.5566 10.9728 24.5566 12.3069Z" fill="white"/>
<path d="M15.2113 24.7573C15.0873 24.7691 15.0043 24.8584 15.0043 24.9686L15.0025 25.4759C15.0006 25.5851 15.0845 25.6762 15.1958 25.6862L16.8416 25.8893L16.8443 25.2294L16.847 24.5705L15.2113 24.7573ZM35.5552 24.3277C35.4421 24.3277 35.35 24.4188 35.35 24.5308V25.9281C35.35 26.04 35.4421 26.1312 35.5552 26.1312H37.7079C38.2112 26.1312 38.6188 25.7277 38.6188 25.2294C38.6188 24.7312 38.2112 24.3277 37.7079 24.3277H35.5552ZM29.6449 23.6444C29.3787 23.6444 29.1608 23.8601 29.1608 24.1237V26.3352C29.1608 26.6015 29.3787 26.8154 29.6449 26.8154H33.3067C34.1911 26.8154 34.9087 26.105 34.9087 25.2294C34.9087 24.3538 34.1902 23.6444 33.3067 23.6444H29.6449ZM24.1031 23.5008V26.9598C24.1031 27.1828 24.2845 27.3615 24.5088 27.3615C24.7331 27.3615 24.9164 27.1828 24.9164 26.9598V23.5008C24.9164 23.2788 24.734 23.0991 24.5088 23.0991C24.2836 23.0991 24.1031 23.2788 24.1031 23.5008ZM27.8633 22.9791V27.431C27.8633 27.6747 28.0448 27.8733 28.27 27.8733C28.4952 27.8733 28.6757 27.6747 28.6757 27.431V22.9791C28.6757 22.7345 28.4943 22.5386 28.27 22.5386C28.0457 22.5386 27.8633 22.7354 27.8633 22.9791ZM17.4151 22.4736V27.9871C17.4151 28.21 17.5965 28.3896 17.8208 28.3896C18.0451 28.3896 18.2275 28.21 18.2275 27.9871V22.4736C18.2275 22.2515 18.046 22.0719 17.8208 22.0719C17.5956 22.0719 17.4151 22.2515 17.4151 22.4736ZM21.6303 22.8717V27.589C21.6303 28.1098 22.0561 28.5314 22.5813 28.5314C23.1065 28.5314 23.5323 28.1098 23.5323 27.589V22.8717C23.5323 22.3526 23.1065 21.9302 22.5813 21.9302C22.0561 21.9302 21.6303 22.3517 21.6303 22.8717ZM25.448 22.8717V27.589C25.448 28.1098 25.8738 28.5314 26.399 28.5314C26.9242 28.5314 27.3509 28.1098 27.3509 27.589V22.8717C27.3509 22.3526 26.9251 21.9302 26.399 21.9302C25.8729 21.9302 25.448 22.3517 25.448 22.8717ZM20.2425 21.6215V28.8644C20.2425 29.156 20.424 29.3925 20.6492 29.3925C20.8744 29.3925 21.0549 29.1551 21.0549 28.8644V21.6215C21.0549 21.3281 20.8735 21.0916 20.6492 21.0916C20.4249 21.0916 20.2425 21.3281 20.2425 21.6215ZM18.8174 20.3415V30.1192C18.8174 30.3412 18.9998 30.5217 19.2232 30.5217C19.4465 30.5217 19.6307 30.3412 19.6307 30.1192V20.3415C19.6307 20.1204 19.4484 19.9398 19.2232 19.9398C18.9979 19.9398 18.8174 20.1204 18.8174 20.3415Z" fill="white"/>
<path d="M29.8967 15.0338C28.2719 15.4346 26.2933 15.4572 24.6494 15.0817C24.6494 15.0826 24.6503 15.0835 24.6512 15.0844C24.6421 15.0817 24.6321 15.079 24.6229 15.0763C23.9354 14.9201 22.0234 14.0509 21.9322 13.9976C21.1217 13.5264 20.3776 12.9505 19.723 12.269C20.012 11.9675 20.591 11.4927 21.0195 11.1551C20.8682 10.5702 20.7916 10.006 20.756 9.6603C20.1077 10.1216 19.257 10.8067 18.7701 11.3059C18.4775 11.6064 18.2021 11.9224 17.9504 12.2464L17.9058 12.3033L17.9504 12.3593C18.1957 12.6752 18.4629 12.9812 18.7428 13.2709C20.0257 14.5988 21.6295 15.6052 23.3802 16.1838C23.3893 16.1865 23.3975 16.1902 23.4057 16.1938C23.5762 16.2497 23.7485 16.3012 23.9227 16.349C25.0633 16.6794 26.2824 16.7272 26.2979 16.7399C26.5359 16.757 26.7711 16.7679 27.0018 16.7679C27.2881 16.7679 27.8151 16.7525 28.2218 16.7281C28.2218 16.7281 28.5628 16.4808 29.1381 15.8995C29.5448 15.4888 29.5959 15.4211 29.8986 15.0348" fill="white"/>
<path d="M32.2381 10.6361C32.2381 10.6361 32.2381 10.637 32.2381 10.6379C32.1406 10.5792 32.0421 10.5214 31.9418 10.4655C31.9226 10.4546 31.9017 10.4447 31.8816 10.4339C31.8816 10.4339 31.8798 10.433 31.8789 10.433C31.5397 12.037 30.8358 13.5715 29.831 14.8804L29.8118 14.9057C29.386 15.4563 28.9073 15.9681 28.3922 16.4294C28.3183 16.4944 28.2363 16.5557 28.1606 16.6198C27.7977 16.924 27.4184 17.2156 27.0126 17.4765C26.6434 17.2382 26.296 16.9746 25.9623 16.6993C25.3131 16.6207 24.2873 16.47 23.5132 16.2398C24.1788 17.0197 24.9392 17.7202 25.7799 18.3223C26.1701 18.6021 26.5777 18.8611 26.9935 19.0922L27.04 19.1175L27.0865 19.0922C27.495 18.8638 27.8962 18.6111 28.2773 18.3376C29.1827 17.6922 29.9979 16.9321 30.6999 16.08C30.7054 16.0737 30.7118 16.0665 30.7182 16.0593C31.2069 15.4635 31.64 14.8262 32.0065 14.1646C32.0585 14.0689 32.1041 13.9696 32.1542 13.8721C32.5828 13.0471 32.9174 12.1742 33.1508 11.267C32.9056 11.0775 32.5855 10.8464 32.239 10.6379" fill="white"/>
<path d="M52.0479 16.1938C53.1266 16.1938 54.0001 15.329 54.0001 14.2621C54.0001 13.1951 53.1266 12.3295 52.0479 12.3295C51.23 12.3295 50.5307 12.8304 50.2417 13.5381H45.7028L41.9954 8.11223C41.3599 7.18068 40.5529 5.9991 40.4964 5.91696C39.7834 4.96735 38.6218 4.40048 37.3881 4.40048H16.3768C15.072 4.40048 13.8757 5.0179 13.16 6.07041L8.40406 13.5372H3.75847C3.46852 12.8295 2.77009 12.3286 1.95221 12.3286C0.873562 12.3286 0.000976562 13.1933 0.000976562 14.2612C0.000976562 15.329 0.873562 16.1929 1.95221 16.1929C2.75641 16.1929 3.44573 15.7108 3.7448 15.0221H5.6158C2.70809 16.572 0.726763 19.6104 0.726763 23.1037V26.6015C0.726763 30.3268 3.78856 33.3597 7.55153 33.3597H46.5954C50.3584 33.3597 53.4193 30.3277 53.4193 26.6015V23.1037C53.4193 19.6104 51.4379 16.572 48.5302 15.0221H50.2553C50.5544 15.7099 51.2437 16.1929 52.0479 16.1929M51.9513 23.1046V26.6024C51.9513 29.5261 49.5487 31.9064 46.5954 31.9064H7.55062C4.59732 31.9064 2.19384 29.527 2.19384 26.6024V23.1046C2.19384 19.4172 4.81615 16.331 8.31105 15.5646C8.45056 15.5339 8.59371 15.5096 8.73686 15.4879L10.5787 17.0215V22.3553C10.2176 22.9276 9.85563 23.499 9.49821 24.074C9.24929 24.4739 9.17817 24.918 9.23835 25.3793C9.2967 25.8342 9.48544 26.2377 9.81004 26.5672C10.3261 27.0898 10.9534 27.3092 11.6874 27.2072C12.2491 27.1286 12.7077 26.8614 13.0578 26.4218C13.4098 25.9786 13.563 25.474 13.5101 24.9108C13.4818 24.6228 13.4144 24.3484 13.2603 24.1002C12.912 23.5387 12.5618 22.9773 12.2108 22.4176V16.2705L9.77083 14.2395L9.9696 13.9272L14.4447 6.90176C14.8614 6.28705 15.5844 5.92147 16.3759 5.92147H20.7014C20.5573 6.68241 20.4844 7.456 20.4844 8.23409C20.4844 8.72875 20.519 9.24778 20.5856 9.77403C20.5874 9.79299 20.5883 9.81195 20.5902 9.8309C20.6449 10.2579 20.7215 10.6839 20.8199 11.0991C20.8318 11.147 20.8473 11.193 20.8591 11.24C21.0679 12.0812 21.4208 13.1031 21.8111 13.9299C22.576 14.3966 23.5754 14.7558 24.1106 14.9309C23.2088 13.7096 22.504 12.213 22.1557 10.7399C22.1475 10.7047 21.9579 9.83271 21.8849 9.05461L21.8995 9.04829C21.8995 9.04017 21.8986 9.03204 21.8977 9.02302C21.8776 8.74048 21.8658 8.47781 21.8658 8.2359C21.8658 7.46051 21.9487 6.68602 22.1138 5.92327H31.8335C31.9967 6.68422 32.0806 7.45961 32.0806 8.2359C32.0806 8.41191 32.0742 8.74229 32.0642 9.0176C32.0669 9.0185 32.0696 9.02031 32.0724 9.02121C32.1052 9.03656 32.9203 9.47796 33.4401 9.81014C33.4884 9.29923 33.5139 8.65925 33.5139 8.23499C33.5139 7.4587 33.4401 6.68422 33.296 5.92237H37.3881C38.1394 5.92237 38.8406 6.25906 39.2391 6.78802C39.2491 6.80517 40.0761 8.01384 40.7253 8.96434L44.1135 13.9263L44.3296 14.2422L41.9042 16.2624V22.4086C41.5532 22.9692 41.2021 23.5297 40.8548 24.0912C40.7016 24.3394 40.6332 24.6147 40.6067 24.9018C40.5529 25.465 40.7061 25.9714 41.0581 26.4128C41.4073 26.8533 41.8668 27.1196 42.4285 27.1981C43.1616 27.2992 43.7907 27.0799 44.305 26.5581C44.6305 26.2278 44.8192 25.8252 44.8776 25.3702C44.9359 24.9081 44.8666 24.4649 44.6177 24.0659C44.2594 23.4909 43.8983 22.9195 43.5363 22.3472V17.0134L45.3727 15.4843C45.5277 15.5077 45.6818 15.5321 45.8331 15.5655C49.3271 16.331 51.9513 19.4172 51.9513 23.1064" fill="white"/>
<path d="M49.6999 2.1023C49.8312 1.85949 50.0136 1.67083 50.2479 1.53723C50.4814 1.40364 50.7494 1.33684 51.0503 1.33684C51.4406 1.33684 51.7624 1.43072 52.015 1.61757C52.2675 1.80533 52.4353 2.06529 52.5165 2.39747H51.9484C51.8946 2.20611 51.7889 2.05536 51.6329 1.94434C51.4761 1.83331 51.2819 1.77825 51.0503 1.77825C50.7494 1.77825 50.506 1.88025 50.32 2.08515C50.1349 2.29006 50.0419 2.57981 50.0419 2.95442C50.0419 3.32902 50.1349 3.626 50.32 3.8318C50.5051 4.03851 50.7485 4.14142 51.0503 4.14142C51.2819 4.14142 51.4752 4.08816 51.6302 3.98074C51.7843 3.87333 51.891 3.72078 51.9493 3.52219H52.5174C52.4326 3.84354 52.2621 4.1008 52.0077 4.29397C51.7524 4.48714 51.4342 4.58372 51.0512 4.58372C50.7503 4.58372 50.4823 4.51692 50.2488 4.38333C50.0154 4.24974 49.8322 4.06018 49.7009 3.81556C49.5696 3.57093 49.5039 3.28389 49.5039 2.95532C49.5039 2.62675 49.5696 2.34602 49.7009 2.1032L49.6999 2.1023Z" fill="white"/>
<path d="M51.0092 5.92057C49.3607 5.92057 48.0186 4.59275 48.0186 2.95983C48.0186 1.32691 49.3607 0 51.0092 0C52.6578 0 53.9999 1.32782 53.9999 2.96073C53.9999 4.59365 52.6587 5.92147 51.0092 5.92147V5.92057ZM51.0092 0.411614C49.5896 0.411614 48.4343 1.55529 48.4343 2.96073C48.4343 4.36618 49.5896 5.50985 51.0092 5.50985C52.4289 5.50985 53.5841 4.36618 53.5841 2.96073C53.5841 1.55529 52.4289 0.411614 51.0092 0.411614Z" fill="white"/>
</g>
<defs>
<clipPath id="clip0_2001_2477">
<rect width="54" height="42" fill="white"/>
</clipPath>
</defs>
</svg>
